<?xml version="1.0" encoding="utf-8"?>
<!-- Generator: Adobe Illustrator 17.0.0, SVG Export Plug-In . SVG Version: 6.00 Build 0)  -->
<!DOCTYPE svg PUBLIC "-//W3C//DTD SVG 1.1//EN" "http://www.w3.org/Graphics/SVG/1.1/DTD/svg11.dtd">
<svg version="1.1" id="Layer_1" xmlns="http://www.w3.org/2000/svg" xmlns:xlink="http://www.w3.org/1999/xlink" x="0px" y="0px"
	 width="1000px" height="1000px" viewBox="0 0 1000 1000" enable-background="new 0 0 1000 1000" xml:space="preserve">
<g>
	<g>
		<path fill="#FFFFFF" d="M489.56,470.764c0-45.49-47.463-39.727-47.488-39.724h-37.28v-0.237h-23.835v0.237h0v23.835h0v33.224h0
			v23.835h0v32.987h0v23.834h61.115c0.025,0.003,47.488,5.766,47.488-39.724c0-16.895-6.548-25.272-14.781-29.133
			C483.012,496.036,489.56,487.658,489.56,470.764z M448.324,544.919h-43.532v-32.987h43.716c7.7,0.848,19.565,4.201,19.565,16.827
			C468.073,541.485,456.017,544.372,448.324,544.919z M445.346,488.098h-40.554v-33.224h43.532
			c7.693,0.547,19.75,3.434,19.75,16.161C468.073,485.576,452.332,487.818,445.346,488.098z"/>
		<polygon fill="#FFFFFF" points="149.531,431.039 149.531,568.991 149.531,568.991 173.366,568.991 249.925,568.991 
			249.925,545.156 173.366,545.156 173.366,511.932 234.758,511.932 234.758,488.098 173.366,488.098 173.366,454.874 
			249.925,454.874 249.925,431.039 173.366,431.039 		"/>
		<polygon fill="#FFFFFF" points="982.794,454.874 982.794,431.039 906.234,431.039 882.4,431.039 882.4,568.991 882.4,568.991 
			906.234,568.991 982.794,568.991 982.794,545.156 906.234,545.156 906.234,511.932 967.626,511.932 967.626,488.098 
			906.234,488.098 906.234,454.874 		"/>
		<polygon fill="#FFFFFF" points="528.714,431.039 504.88,431.039 504.88,568.991 504.88,568.991 528.714,568.991 605.273,568.991 
			605.273,545.156 528.714,545.156 		"/>
		<polygon fill="#FFFFFF" points="303.524,431.039 265.244,431.039 265.244,454.874 303.524,454.874 303.524,568.991 
			327.358,568.991 327.358,454.874 365.638,454.874 365.638,431.039 327.358,431.039 		"/>
		<polygon fill="#FFFFFF" points="689.239,456.854 678.347,430.802 667.459,456.854 667.459,456.859 620.593,568.992 
			642.372,568.992 678.347,482.916 692.676,517.201 672.679,517.201 663.418,539.36 701.937,539.36 714.321,568.992 
			736.101,568.992 689.239,456.859 		"/>
		<path fill="#FFFFFF" d="M849.388,446.909c-5.773-6.085-12.705-10.32-20.799-12.705c-6.023-1.756-14.775-2.635-26.257-2.635H751.42
			v137.964h52.419c10.289,0,18.507-0.972,24.657-2.917c8.218-2.635,14.743-6.305,19.575-11.011
			c6.4-6.211,11.324-14.336,14.776-24.374c2.823-8.219,4.234-18.006,4.234-29.362c0-12.924-1.506-23.794-4.517-32.609
			C859.552,460.446,855.16,452.996,849.388,446.909z M835.46,525.914c-1.882,6.18-4.314,10.62-7.294,13.317
			c-2.981,2.698-6.729,4.611-11.246,5.74c-3.451,0.879-9.067,1.317-16.845,1.317h-24.762l-0.058-91.38h16.539
			c11.355,0,18.977,0.44,22.868,1.318c5.207,1.129,9.505,3.294,12.893,6.493c3.388,3.2,6.023,7.655,7.905,13.364
			c1.882,5.71,2.823,13.897,2.823,24.563C838.283,511.313,837.342,519.736,835.46,525.914z"/>
		<polygon fill="#FFFFFF" points="110.378,435.481 110.378,463.762 110.378,517.291 22.477,435.481 17.206,430.577 17.206,435.481 
			17.206,530.39 17.206,563.591 17.206,568.496 41.041,568.496 41.041,563.591 41.041,534.182 41.041,481.781 128.941,563.591 
			134.212,568.496 134.212,563.591 134.212,463.762 134.212,435.481 134.212,430.577 110.378,430.577 		"/>
	</g>
	<linearGradient id="SVGID_1_" gradientUnits="userSpaceOnUse" x1="500" y1="916.232" x2="500" y2="83.768">
		<stop  offset="0" style="stop-color:#38AECC"/>
		<stop  offset="1" style="stop-color:#40D6CC"/>
	</linearGradient>
	<path fill="url(#SVGID_1_)" d="M161.91,595.95h-12.946l56.916,137.391c3.373-2.082,7.048-3.713,10.941-4.825L161.91,595.95z
		 M728.57,783.177l-189.887,78.657c1.915,3.463,3.379,7.208,4.317,11.153l190.407-78.869
		C731.326,790.745,729.694,787.07,728.57,783.177z M838.09,595.95l-54.911,132.566c3.893,1.111,7.568,2.743,10.941,4.825
		l56.916-137.391H838.09z M271.43,783.177c-1.124,3.893-2.756,7.568-4.838,10.941L457,872.987c0.938-3.945,2.403-7.69,4.317-11.153
		L271.43,783.177z M794.094,266.674c-3.379,2.075-7.054,3.707-10.948,4.818l54.68,132.026h12.946L794.094,266.674z M457.019,127.086
		l-190.388,78.869c2.075,3.373,3.707,7.048,4.818,10.948l189.912-78.663C459.435,134.776,457.964,131.03,457.019,127.086z
		 M205.906,266.674l-56.678,136.845h12.946l54.68-132.026C212.96,270.381,209.285,268.749,205.906,266.674z M542.981,127.086
		c-0.945,3.945-2.416,7.69-4.343,11.153l189.912,78.663c1.111-3.9,2.743-7.575,4.818-10.948L542.981,127.086z M228.951,262.063
		c-18.263,0-33.069-14.805-33.069-33.069s14.805-33.069,33.069-33.069s33.069,14.805,33.069,33.069S247.214,262.063,228.951,262.063
		z M737.98,228.995c0-18.263,14.805-33.069,33.069-33.069c18.263,0,33.069,14.805,33.069,33.069s-14.805,33.069-33.069,33.069
		C752.786,262.063,737.98,247.258,737.98,228.995z M466.931,116.837c0-18.263,14.805-33.069,33.069-33.069
		c18.263,0,33.069,14.805,33.069,33.069S518.263,149.905,500,149.905C481.737,149.905,466.931,135.1,466.931,116.837z
		 M262.02,771.005c0,18.263-14.805,33.069-33.069,33.069s-33.069-14.805-33.069-33.069c0-18.263,14.805-33.069,33.069-33.069
		S262.02,752.742,262.02,771.005z M771.049,737.937c18.263,0,33.069,14.805,33.069,33.069c0,18.263-14.805,33.069-33.069,33.069
		c-18.263,0-33.069-14.805-33.069-33.069C737.98,752.742,752.786,737.937,771.049,737.937z M500,850.095
		c18.263,0,33.069,14.805,33.069,33.069c0,18.263-14.805,33.069-33.069,33.069c-18.263,0-33.069-14.805-33.069-33.069
		C466.931,864.9,481.737,850.095,500,850.095z M463.81,378.919v24.6h-18.586v-24.6H463.81z M445.223,595.95h18.586v166.225
		l-18.586-25.763V595.95z M520.392,378.919v24.6h-40.784v-24.6H520.392z M479.608,595.95h40.784v188.126L500,812.338l-20.392-28.262
		V595.95z M554.776,378.919v24.6H536.19v-24.6H554.776z M536.19,595.95h18.586v140.462l-18.586,25.763V595.95z M564.871,366.428
		H435.129c-15.467,0-28.123-10.361-28.123-23.026c0-12.664,12.655-23.025,28.123-23.025h129.741
		c15.467,0,28.123,10.361,28.123,23.025C592.993,356.067,580.338,366.428,564.871,366.428z M520.392,159.402v148.486h-40.784
		V159.402c6.174,2.975,13.093,4.639,20.392,4.639S514.218,162.376,520.392,159.402z"/>
</g>
</svg>
